<?xml version="1.0" standalone="no"?>
<!DOCTYPE svg PUBLIC "-//W3C//DTD SVG 20010904//EN"
 "http://www.w3.org/TR/2001/REC-SVG-20010904/DTD/svg10.dtd">
<svg version="1.0" xmlns="http://www.w3.org/2000/svg"
 width="2401.000000pt" height="2401.000000pt" viewBox="0 0 2401.000000 2401.000000"
 preserveAspectRatio="xMidYMid meet">
<metadata>
Created by potrace 1.14, written by Peter Selinger 2001-2017
</metadata>
<g transform="translate(0.000000,2401.000000) scale(0.100000,-0.100000)"
fill="#000000" stroke="none">
<path d="M11588 24005 c-2 -1 -75 -6 -163 -10 -88 -4 -180 -8 -205 -10 -25 -2
-85 -6 -135 -10 -49 -4 -103 -8 -120 -9 -16 -2 -64 -6 -105 -10 -41 -4 -95 -9
-120 -12 -25 -2 -63 -6 -85 -9 -22 -2 -56 -6 -75 -9 -19 -3 -55 -7 -80 -10
-107 -13 -139 -18 -210 -28 -41 -6 -84 -12 -95 -14 -261 -37 -791 -141 -1025
-201 -14 -3 -32 -8 -40 -9 -8 -2 -67 -17 -130 -34 -63 -17 -123 -32 -132 -35
-220 -51 -813 -244 -1148 -373 -240 -92 -474 -190 -677 -283 -35 -16 -93 -43
-130 -60 -448 -204 -1147 -598 -1543 -868 -41 -29 -100 -68 -130 -88 -241
-158 -726 -528 -1014 -774 -44 -37 -194 -168 -212 -184 -240 -217 -602 -569
-741 -721 -15 -17 -69 -75 -119 -130 -125 -135 -245 -272 -333 -379 -41 -49
-82 -98 -90 -107 -9 -9 -21 -23 -26 -30 -6 -7 -44 -56 -86 -108 -41 -52 -115
-147 -163 -210 -48 -63 -93 -122 -99 -130 -12 -15 -111 -152 -174 -240 -160
-225 -440 -663 -575 -900 -98 -171 -107 -188 -156 -280 -25 -47 -48 -89 -53
-95 -9 -12 -269 -532 -269 -538 0 -3 -22 -52 -50 -110 -27 -58 -50 -108 -50
-111 0 -2 -13 -33 -29 -68 -16 -35 -52 -119 -81 -188 -28 -69 -57 -138 -65
-155 -78 -175 -315 -868 -386 -1130 -12 -44 -23 -86 -25 -93 -2 -7 -4 -16 -5
-20 -1 -4 -5 -17 -10 -30 -8 -20 -106 -402 -114 -441 -2 -9 -19 -88 -38 -176
-31 -141 -47 -217 -63 -305 -2 -14 -7 -36 -10 -50 -6 -26 -9 -42 -18 -100 -6
-34 -9 -52 -22 -130 -16 -95 -44 -276 -50 -325 -3 -22 -9 -69 -14 -105 -5 -36
-12 -92 -15 -125 -4 -33 -8 -73 -10 -90 -5 -37 -13 -121 -21 -195 -2 -30 -7
-73 -9 -95 -2 -22 -7 -83 -10 -135 -4 -52 -8 -115 -10 -140 -27 -320 -27
-1192 -1 -1535 3 -33 8 -103 11 -155 3 -52 8 -108 9 -125 2 -16 7 -66 10 -110
4 -44 9 -93 11 -110 2 -16 7 -57 10 -90 3 -33 8 -75 11 -92 8 -66 13 -100 24
-183 16 -122 20 -148 30 -210 10 -59 18 -116 25 -165 3 -16 7 -41 10 -55 6
-28 25 -135 30 -165 1 -11 11 -58 20 -105 10 -47 18 -89 19 -95 1 -5 5 -23 9
-40 4 -16 9 -42 11 -57 9 -56 139 -582 175 -713 254 -903 620 -1795 1064
-2590 74 -131 198 -346 217 -375 23 -34 192 -305 205 -329 19 -34 70 -106 78
-109 4 -2 7 -8 7 -13 0 -24 459 -657 607 -838 15 -19 72 -88 127 -155 54 -66
104 -125 110 -131 6 -5 21 -22 32 -37 12 -15 46 -55 77 -90 30 -35 65 -74 77
-88 20 -23 158 -173 243 -264 185 -198 569 -569 767 -742 24 -21 58 -51 75
-65 16 -15 68 -59 115 -99 47 -40 96 -82 110 -94 14 -11 45 -37 70 -56 25 -19
50 -39 56 -45 6 -5 28 -23 49 -40 21 -16 61 -48 89 -71 263 -209 693 -511
1039 -728 143 -89 494 -296 502 -296 3 0 22 -10 43 -23 85 -53 563 -298 749
-383 313 -144 648 -282 913 -378 41 -15 85 -32 98 -37 122 -49 796 -260 942
-294 8 -2 89 -22 179 -45 90 -23 171 -43 180 -45 9 -2 57 -12 106 -24 50 -11
104 -22 120 -25 17 -3 71 -14 120 -25 110 -24 168 -34 410 -76 77 -13 158 -26
180 -30 64 -9 247 -34 290 -40 37 -4 78 -9 175 -20 19 -3 85 -9 145 -15 61 -6
128 -12 150 -15 39 -4 151 -12 270 -20 246 -16 395 -19 790 -19 461 0 613 5
920 30 39 3 90 7 115 9 79 6 174 15 210 21 19 2 58 7 85 9 28 2 70 7 95 10 25
4 59 8 75 9 37 4 132 17 155 21 9 2 41 6 71 10 30 3 61 8 69 10 13 4 77 14
120 19 24 3 113 17 140 22 14 3 34 6 45 8 23 4 52 10 195 38 120 23 126 24
160 32 14 3 36 8 50 10 60 11 230 51 413 97 531 133 1066 307 1568 510 152 61
193 78 297 125 29 13 54 24 57 24 2 0 39 16 82 36 330 151 673 326 998 509 44
24 276 162 371 220 145 88 457 293 604 398 95 67 342 249 350 257 3 3 34 27
70 55 74 56 352 278 390 311 14 12 48 41 75 64 133 113 270 237 443 399 219
205 560 555 727 747 33 38 78 89 101 114 57 63 260 307 324 390 19 25 38 47
41 50 16 13 270 355 373 500 64 91 119 170 123 175 73 95 477 743 526 845 5 8
13 24 20 35 48 80 179 327 288 545 89 179 115 232 179 375 12 28 35 78 51 112
16 34 29 64 29 67 0 2 13 33 29 68 16 35 66 158 111 273 45 116 86 219 91 230
22 50 205 581 213 620 1 6 14 48 29 95 70 228 132 457 193 715 40 167 42 177
50 220 2 17 9 46 14 65 5 19 12 49 14 65 3 17 8 41 11 55 3 14 8 39 10 55 3
17 8 37 10 45 2 8 7 31 10 50 7 41 23 135 29 167 3 11 8 43 12 70 3 26 8 55 9
63 2 8 6 35 10 60 4 25 9 54 11 65 2 11 7 40 10 65 3 25 7 56 10 70 2 14 7 49
10 79 3 30 7 63 9 74 3 10 9 64 15 120 6 56 13 118 15 137 3 19 7 64 10 100 3
36 8 85 10 110 2 25 7 83 10 130 4 47 8 105 10 130 26 328 26 1246 0 1565 -2
28 -7 91 -10 140 -4 50 -8 108 -10 130 -10 108 -26 273 -30 300 -6 45 -14 114
-20 170 -3 28 -8 65 -10 83 -15 107 -25 174 -31 207 -7 42 -26 161 -29 180 -1
11 -5 36 -9 55 -9 51 -15 90 -22 130 -3 19 -7 42 -9 50 -2 8 -7 29 -10 46 -15
89 -98 467 -139 634 -2 8 -10 38 -16 65 -12 46 -56 208 -99 365 -144 516 -412
1229 -656 1745 -101 214 -306 617 -357 700 -10 17 -22 39 -27 50 -5 11 -39 72
-76 135 -37 63 -78 134 -91 156 -84 149 -392 624 -482 746 -23 31 -42 61 -42
67 0 5 -4 11 -8 13 -4 2 -37 44 -72 93 -36 50 -70 97 -77 105 -6 8 -42 56 -79
105 -129 172 -391 493 -533 654 -73 83 -139 157 -161 180 -14 15 -54 58 -89
96 -147 160 -489 501 -647 645 -245 225 -468 413 -785 665 -86 68 -341 256
-449 330 -47 33 -87 62 -90 65 -17 20 -642 420 -656 420 -3 0 -18 8 -32 19
-15 10 -90 54 -167 98 -134 77 -176 101 -310 173 -71 39 -511 259 -575 288
-25 11 -81 37 -125 57 -102 47 -338 148 -435 186 -41 17 -88 36 -105 43 -198
89 -1093 384 -1305 431 -8 2 -105 26 -215 53 -224 56 -324 79 -374 87 -19 3
-37 7 -40 9 -3 2 -22 7 -41 10 -19 3 -66 12 -105 20 -79 16 -339 63 -400 71
-22 3 -50 8 -61 10 -12 3 -73 12 -135 20 -63 9 -127 17 -144 20 -16 2 -52 7
-80 10 -27 3 -66 8 -85 11 -53 7 -98 12 -170 19 -36 3 -81 7 -100 10 -19 2
-71 7 -115 10 -44 3 -100 8 -125 10 -41 3 -137 10 -305 21 -72 5 -1022 13
-1027 9z"/>
</g>
</svg>
