<?xml version="1.0" encoding="iso-8859-1"?>
<!-- Generator: Adobe Illustrator 19.0.0, SVG Export Plug-In . SVG Version: 6.00 Build 0)  -->
<svg version="1.1" id="Capa_1" xmlns="http://www.w3.org/2000/svg" xmlns:xlink="http://www.w3.org/1999/xlink" x="0px" y="0px"
	 viewBox="0 0 480.008 480.008" style="enable-background:new 0 0 480.008 480.008;" xml:space="preserve">
<g>
	<g>
		<path d="M256.004,272.008c-110.405,0.124-199.876,89.595-200,200c0,4.418,3.582,8,8,8h384c4.418,0,8-3.582,8-8
			C455.88,361.602,366.409,272.132,256.004,272.008z M72.176,464.008c4.421-101.525,90.308-180.244,191.834-175.823
			c95.331,4.152,171.671,80.491,175.823,175.823H72.176z"/>
	</g>
</g>
<g>
	<g>
		<path d="M228.785,321.895c-7.157-6.834-16.827-10.395-26.707-9.836c-17.701,1.255-31.945,15.04-33.777,32.691
			c-16.018,3.178-28.471,15.816-31.414,31.879c-19.655,3.568-33.671,21.08-32.848,41.039c0.804,17.119,15.016,30.529,32.153,30.34
			h71.457c17.861-0.021,32.335-14.495,32.355-32.355v-67.645C239.986,338.137,235.932,328.703,228.785,321.895z M224.004,415.652
			c-0.009,9.029-7.326,16.346-16.355,16.355h-71.457c-8.507,0.067-15.594-6.504-16.168-14.992
			c-0.556-13.244,9.729-24.431,22.972-24.987c0.336-0.014,0.672-0.021,1.008-0.021h0.254c4.42-0.001,8.001-3.585,8-8.005
			c0-0.019,0-0.038,0-0.058c-0.105-13.115,10.441-23.831,23.556-23.937c0.063,0,0.127-0.001,0.19-0.001c4.418,0,8-3.582,8-8v-2.414
			c-0.289-11.02,7.946-20.409,18.91-21.559c11.032-0.599,20.462,7.859,21.06,18.892c0.02,0.36,0.029,0.721,0.029,1.081V415.652z"/>
	</g>
</g>
<g>
	<g>
		<path d="M160.004,400.008c-8.833,0.009-15.991,7.167-16,16h32C175.995,407.175,168.837,400.017,160.004,400.008z"/>
	</g>
</g>
<g>
	<g>
		<path d="M192.004,368.008c-8.833,0.009-15.991,7.167-16,16h32C207.995,375.175,200.837,368.017,192.004,368.008z"/>
	</g>
</g>
<g>
	<g>
		<path d="M375.121,376.629c-1.425-7.902-5.227-15.182-10.898-20.867c-5.574-5.652-12.725-9.49-20.516-11.012
			c-1.832-17.651-16.076-31.437-33.777-32.691c-19.854-1.063-36.811,14.17-37.874,34.024c-0.034,0.641-0.052,1.283-0.052,1.925
			v67.645c0.021,17.861,14.495,32.335,32.355,32.355h71.457c17.135,0.19,31.346-13.219,32.152-30.336
			C408.794,397.711,394.777,380.198,375.121,376.629z M391.984,417.02c-0.576,8.487-7.662,15.056-16.168,14.988h-71.457
			c-9.029-0.009-16.346-7.326-16.355-16.355v-67.645c0.001-11.047,8.957-20.001,20.004-20c0,0,0,0,0,0
			c0.359,0,0.723,0.008,1.086,0.027c10.964,1.15,19.199,10.538,18.91,21.559v2.414c0,4.418,3.582,8,8,8
			c13.115,0,23.747,10.632,23.747,23.747c0,0.063,0,0.127-0.001,0.19c-0.015,2.143,0.829,4.203,2.344,5.719
			c1.545,1.471,3.586,2.308,5.719,2.344c6.57-0.044,12.873,2.599,17.445,7.316C389.849,404.04,392.283,410.445,391.984,417.02z"/>
	</g>
</g>
<g>
	<g>
		<path d="M352.004,400.008c-8.833,0.009-15.991,7.167-16,16h32C367.995,407.175,360.837,400.017,352.004,400.008z"/>
	</g>
</g>
<g>
	<g>
		<path d="M320.004,368.008c-8.833,0.009-15.991,7.167-16,16h32C335.995,375.175,328.837,368.017,320.004,368.008z"/>
	</g>
</g>
<g>
	<g>
		<path d="M79.199,32.011C74.782,10.365,53.653-3.602,32.007,0.816C13.382,4.617,0.005,20.999,0.004,40.008h16
			c0.014-13.249,10.751-23.986,24-24c13.255,0,24,10.745,24,24s-10.745,24-24,24c-4.418,0-8,3.582-8,8v40h16V79.203
			C69.65,74.786,83.617,53.657,79.199,32.011z"/>
	</g>
</g>
<g>
	<g>
		<rect x="32.004" y="128.008" width="16" height="16"/>
	</g>
</g>
<g>
	<g>
		<path d="M476.488,121.383c-2.197-1.492-4.992-1.794-7.457-0.805l-77.027,30.811l-77.027-30.811
			c-4.104-1.64-8.761,0.357-10.401,4.461c-0.377,0.944-0.571,1.952-0.572,2.969v112c0.002,3.271,1.992,6.212,5.027,7.43l80,32
			c1.899,0.784,4.037,0.759,5.917-0.07l0.028,0.069l80-32c3.035-1.218,5.026-4.159,5.027-7.429v-112
			C480.005,125.353,478.687,122.871,476.488,121.383z M384.004,260.192l-64-25.602v-94.766l64,25.602V260.192z M464.004,234.59
			l-64,25.599v-94.763l64-25.602V234.59z"/>
	</g>
</g>
<g>
	<g>
		<path d="M144.004,160.008h-104c-4.418,0-8,3.582-8,8v48h-24c-4.417-0.001-7.999,3.58-8,7.997c0,1.817,0.618,3.58,1.754,4.999
			l21.707,27.133c8.002,10.057,20.164,15.903,33.016,15.871h87.523c4.418,0,8-3.582,8-8v-96
			C152.004,163.59,148.422,160.008,144.004,160.008z M136.004,256.008H56.48c-7.989,0.019-15.548-3.614-20.523-9.863l-11.309-14.137
			h15.355c4.418,0,8-3.582,8-8v-48h88V256.008z"/>
	</g>
</g>
<g>
	<g>
		<rect x="64.004" y="192.008" width="56" height="16"/>
	</g>
</g>
<g>
	<g>
		<rect x="64.004" y="224.008" width="16" height="16"/>
	</g>
</g>
<g>
	<g>
		<rect x="96.004" y="224.008" width="24" height="16"/>
	</g>
</g>
<g>
	<g>
		<path d="M279.434,88.007c-3.963-27.561-27.585-48.017-55.43-48c-30.909-0.019-55.981,25.023-56,55.932
			c-0.017,27.845,20.439,51.466,48,55.43v64.639h16v-64.639C262.598,146.97,283.833,118.602,279.434,88.007z M224.004,136.008
			c-22.091,0-40-17.909-40-40s17.909-40,40-40c22.091,0,40,17.909,40,40C263.978,118.088,246.085,135.982,224.004,136.008z"/>
	</g>
</g>
<g>
	<g>
		<path d="M240.004,96.008c-0.009,8.833-7.167,15.991-16,16v16c17.665-0.02,31.98-14.335,32-32H240.004z"/>
	</g>
</g>
<g>
	<g>
		<path d="M411.052,38.445c3.193-4.137,4.934-9.211,4.952-14.438c0-13.255-10.745-24-24-24s-24,10.745-24,24
			c0.018,5.226,1.759,10.3,4.952,14.438c-8.12,5.99-12.924,15.472-12.952,25.563v40c0,4.418,3.582,8,8,8h48c4.418,0,8-3.582,8-8v-40
			C423.976,53.917,419.172,44.436,411.052,38.445z M392.004,16.008c4.418,0,8,3.582,8,8s-3.582,8-8,8s-8-3.582-8-8
			C384.01,19.592,387.588,16.014,392.004,16.008z M408.004,96.008h-32v-32c0-8.837,7.163-16,16-16s16,7.163,16,16V96.008z"/>
	</g>
</g>
<g>
</g>
<g>
</g>
<g>
</g>
<g>
</g>
<g>
</g>
<g>
</g>
<g>
</g>
<g>
</g>
<g>
</g>
<g>
</g>
<g>
</g>
<g>
</g>
<g>
</g>
<g>
</g>
<g>
</g>
</svg>
