<?xml version="1.0" encoding="utf-8"?>
<!-- Generator: Adobe Illustrator 22.1.0, SVG Export Plug-In . SVG Version: 6.00 Build 0)  -->
<svg version="1.1" id="Capa_1" xmlns="http://www.w3.org/2000/svg" xmlns:xlink="http://www.w3.org/1999/xlink" x="0px" y="0px"
	 viewBox="0 0 512 512" style="enable-background:new 0 0 512 512;" xml:space="preserve">
<g>
	<g>
		<path d="M504.4,158.3c-66.4,0-130.5-20.3-192.4-39.9c-49.5-15.6-100.6-31.8-151.3-36.8C103.3,76,52.1,85.5,4.1,110.5
			c-3.7,1.9-5.2,6.5-3.2,10.3c1.9,3.7,6.5,5.2,10.3,3.2c101.1-52.8,195.9-22.8,296.3,9c63,19.9,128.2,40.6,197,40.6
			c4.2,0,7.6-3.4,7.6-7.6S508.6,158.3,504.4,158.3z"/>
	</g>
</g>
<g>
	<g>
		<path d="M507.9,419.5c-48-25.1-99.2-34.5-156.6-28.9c-50.8,5-101.9,21.2-151.3,36.8c-38.1,12-77.4,24.5-117.1,32.1
			c-4.1,0.8-6.8,4.8-6,8.9c0.7,3.6,3.9,6.2,7.5,6.2c0.5,0,1,0,1.4-0.1c40.5-7.8,80.3-20.4,118.8-32.6c100.4-31.8,195.2-61.7,296.3-9
			c3.7,1.9,8.3,0.5,10.3-3.2C513.1,426,511.6,421.4,507.9,419.5z"/>
	</g>
</g>
<g>
	<g>
		<path d="M91.4,466c-0.6-4.2-4.4-7-8.6-6.5c-17.9,3.5-58.5,7.7-75.2,7.7c-4.2,0-7.6,3.4-7.6,7.6s3.4,7.6,7.6,7.6
			c17.5,0,58.5-4.1,77.3-7.9C89.1,474,92,470.2,91.4,466z"/>
	</g>
</g>
<g>
	<g>
		<path d="M104.3,291.3c-13.5,0-24.4,11-24.4,24.4s11,24.4,24.4,24.4s24.4-11,24.4-24.4S117.8,291.3,104.3,291.3z M104.3,325
			c-5.1,0-9.2-4.1-9.2-9.2s4.1-9.2,9.2-9.2s9.2,4.1,9.2,9.2S109.4,325,104.3,325z"/>
	</g>
</g>
<g>
	<g>
		<path d="M282,291.3c-13.5,0-24.4,11-24.4,24.4s11,24.4,24.4,24.4s24.4-11,24.4-24.4S295.4,291.3,282,291.3z M282,325
			c-5.1,0-9.2-4.1-9.2-9.2s4.1-9.2,9.2-9.2c5.1,0,9.2,4.1,9.2,9.2S287.1,325,282,325z"/>
	</g>
</g>
<g>
	<g>
		<path d="M209,253.6h-13.7c-4.2,0-7.6,3.4-7.6,7.6s3.4,7.6,7.6,7.6H209c4.2,0,7.6-3.4,7.6-7.6S213.2,253.6,209,253.6z"/>
	</g>
</g>
<g>
	<g>
		<path d="M242.4,141.6H90.4c-4.2,0-7.6,3.4-7.6,7.6s3.4,7.6,7.6,7.6h152.1c4.2,0,7.6-3.4,7.6-7.6S246.6,141.6,242.4,141.6z"/>
	</g>
</g>
<g>
	<g>
		<path d="M504.4,346.9H367.8c-4.2,0-7.6,3.4-7.6,7.6s3.4,7.6,7.6,7.6h136.6c4.2,0,7.6-3.4,7.6-7.6
			C512,350.3,508.6,346.9,504.4,346.9z"/>
	</g>
</g>
<g>
	<g>
		<path d="M377.8,346.9h-61.5c6.1-6.7,10.2-15.2,11.6-24.5c5.2-1.4,9.9-4.3,13.5-8.4c5.2-5.9,7.7-13.8,6.7-21.6l-7.3-58.5
			c-0.5-3.8-3.7-6.7-7.5-6.7h-62.7l-6.8-53.7c-0.5-3.8-3.7-6.7-7.5-6.7H67c-4,0-7.2,3-7.6,7l-4.6,54.3c-12,3.1-20.8,14-20.8,27v36.8
			c0,14.9,10.4,27.4,24.3,30.6c1.4,9.3,5.5,17.7,11.6,24.4H7.6c-4.2,0-7.6,3.4-7.6,7.6s3.4,7.6,7.6,7.6h370.2v0
			c4.2,0,7.6-3.4,7.6-7.6C385.4,350.3,382,346.9,377.8,346.9z M202.9,182.2h46.5l5.7,45.1h-52.2L202.9,182.2L202.9,182.2z
			 M110.6,182.2h45.6v45.1h-45.6V182.2z M74,182.2h21.4v45.1H70.2L74,182.2z M104.3,346.9c-17.2,0-31.2-14-31.2-31.2
			s14-31.2,31.2-31.2s31.2,14,31.2,31.2C135.5,332.9,121.5,346.9,104.3,346.9z M138.6,346.9c5.9-6.5,9.9-14.6,11.4-23.6h86.2
			c1.5,9,5.6,17.1,11.4,23.6H138.6z M282,346.9c-17.2,0-31.2-14-31.2-31.2s14-31.2,31.2-31.2s31.2,14,31.2,31.2
			C313.1,332.9,299.2,346.9,282,346.9z M282,269.3c-23,0-42.1,16.8-45.7,38.8h-86.2c-3.6-22-22.8-38.8-45.7-38.8
			c-22.5,0-41.3,16.1-45.5,37.3c-5.6-2.6-9.5-8.2-9.5-14.8v-36.8c0-7,5.7-12.7,12.7-12.7h101.9c4.2,0,7.6-3.4,7.6-7.6v-52.7h16.2
			v52.7c0,4.2,3.4,7.6,7.6,7.6h131.2l1.4,11.5H323c-4.2,0-7.6,3.4-7.6,7.6s3.4,7.6,7.6,7.6h6.8l3.1,25.1c0.4,3.6-0.6,7-3,9.7
			c-0.8,0.9-1.7,1.6-2.6,2.2C323,285.2,304.3,269.3,282,269.3z"/>
	</g>
</g>
<g>
	<g>
		<path d="M467,34.2c-4.2,0-7.6,3.4-7.6,7.6v15.6c0,5.1-4.1,9.2-9.2,9.2H449v-40c0-4.2-3.4-7.6-7.6-7.6s-7.6,3.4-7.6,7.6v78.6
			c-4.9-0.2-8.9-4.2-8.9-9.2V73.3c0-4.2-3.4-7.6-7.6-7.6s-7.6,3.4-7.6,7.6V96c0,13.3,10.8,24.2,24.1,24.4v14.7
			c0,4.2,3.4,7.6,7.6,7.6s7.6-3.4,7.6-7.6V81.9h1.2c13.5,0,24.4-11,24.4-24.4V41.8C474.6,37.6,471.2,34.2,467,34.2z"/>
	</g>
</g>
<g>
	<g>
		<path d="M370.4,29.2c-4.2,0-7.6,3.4-7.6,7.6V90c-4.9-0.2-8.9-4.2-8.9-9.2V58c0-4.2-3.4-7.6-7.6-7.6s-7.6,3.4-7.6,7.6v22.7
			c0,13.3,10.8,24.2,24.1,24.4v14.7c0,4.2,3.4,7.6,7.6,7.6s7.6-3.4,7.6-7.6V36.8C378,32.6,374.6,29.2,370.4,29.2z"/>
	</g>
</g>
<g>
	<g>
		<path d="M378.6,459.2c-1.2-2.8-3.9-4.7-7-4.7c-3.3,0-6.4,2.2-7.3,5.4c-2,6.5,5.4,12.2,11.2,8.7C378.7,466.7,380,462.6,378.6,459.2
			z"/>
	</g>
</g>
<g>
	<g>
		<path d="M397.9,474.4c-2.6-6.3-11.9-6.1-14.2,0.3c-2.4,6.7,5.2,12.7,11.2,9C398,481.8,399.2,477.8,397.9,474.4z"/>
	</g>
</g>
<g>
	<g>
		<path d="M61.6,403.1c-1.9-2.8-5.5-4-8.7-3c-3,1-5.1,3.8-5.2,7c-0.2,6.8,8.5,10.4,13.2,5.3C63.2,409.9,63.5,406,61.6,403.1z"/>
	</g>
</g>
<g>
	<g>
		<path d="M86.9,393c-1.9-2.8-5.5-4.1-8.7-3c-3,1-5.1,3.7-5.2,6.8c-0.3,6.8,8.2,10.6,13,5.7C88.5,400,88.9,396,86.9,393z"/>
	</g>
</g>
<g>
	<g>
		<path d="M372.5,482.5c-2.6-6.2-11.9-6.1-14.2,0.3c-1,2.9-0.2,6.3,2.2,8.3c2.5,2.1,6.1,2.4,8.9,0.8
			C372.6,490,373.9,485.9,372.5,482.5z"/>
	</g>
</g>
<g>
	<g>
		<path d="M73.9,413.3c-3.2-1.1-6.8,0.2-8.7,3c-3.7,5.5,1.3,13,7.8,11.7c3.5-0.7,6.1-3.9,6.1-7.5C79.1,417.3,76.9,414.3,73.9,413.3z
			"/>
	</g>
</g>
</svg>
