<?xml version="1.0" encoding="UTF-8"?>
<svg xmlns="http://www.w3.org/2000/svg" id="Icons" viewBox="0 0 60 60" width="512" height="512"><path d="M7,56v1a3,3,0,0,0,3,3h2a3,3,0,0,0,3-3V56H45v1a3,3,0,0,0,3,3h2a3,3,0,0,0,3-3V56a5.006,5.006,0,0,0,5-5V5a5.006,5.006,0,0,0-5-5H7A5.006,5.006,0,0,0,2,5V51A5.006,5.006,0,0,0,7,56Zm6,1a1,1,0,0,1-1,1H10a1,1,0,0,1-1-1V56h4Zm38,0a1,1,0,0,1-1,1H48a1,1,0,0,1-1-1V56h4ZM4,5A3,3,0,0,1,7,2H53a3,3,0,0,1,3,3V51a3,3,0,0,1-3,3H7a3,3,0,0,1-3-3Z"/><path d="M8,52H52a2,2,0,0,0,2-2V6a2,2,0,0,0-2-2H8A2,2,0,0,0,6,6V50A2,2,0,0,0,8,52Zm7-2H13V40h2Zm13,0H24V40h4Zm4-12V50H30V35h2Zm4,12H34V38h2Zm10,0H44V40h2ZM8,6H52V25H50V13a2,2,0,0,0-2-2H46V10a2,2,0,0,0-2-2H42a2,2,0,0,0-2,2v3H36a2,2,0,0,0-2,2V25H22V15a2,2,0,0,0-2-2H16V10a2,2,0,0,0-2-2H12a2,2,0,0,0-2,2V25H8Zm40,7V25H46V13Zm-4-3V25H42V10Zm-4,5V25H36V15ZM20,15V25H16V15Zm-6-5V25H12V10ZM8,27H52v2H8Zm0,4H52V50H48V40a2,2,0,0,0-2-2H44a2,2,0,0,0-2,2V50H38V38a2,2,0,0,0-2-2H34V35a2,2,0,0,0-2-2H30a2,2,0,0,0-2,2v3H24a2,2,0,0,0-2,2V50H17V40a2,2,0,0,0-2-2H13a2,2,0,0,0-2,2V50H8Z"/></svg>
