<svg id="icons" enable-background="new 0 0 64 64" height="512" viewBox="0 0 64 64" width="512" xmlns="http://www.w3.org/2000/svg"><g><g><g><g><path d="m4.028 59.004c-.553 0-1.005-.447-1.005-1s.442-1 .994-1h.011c.552 0 1 .447 1 1s-.448 1-1 1z"/></g><g><path d="m61.002 48.469c-.346 0-.682-.179-.866-.499-.277-.479-.113-1.09.364-1.366.926-.535 1.5-1.531 1.5-2.6 0-1.654-1.346-3-3-3-.553 0-1-.447-1-1s.447-1 1-1c2.757 0 5 2.243 5 5 0 1.779-.957 3.439-2.498 4.33-.158.092-.33.135-.5.135z"/></g><g><path d="m34.001 63.004c-.356 0-.701-.19-.882-.526-.262-.486-.079-1.093.407-1.354l27-14.535c.484-.261 1.092-.079 1.354.407s.079 1.093-.407 1.354l-27 14.535c-.15.081-.312.119-.472.119z"/></g><g><path d="m34.001 63.004c-.045 0-.09-.003-.136-.009l-21.999-3c-.548-.075-.931-.579-.856-1.126.074-.548.575-.93 1.126-.856l21.999 3c.548.075.931.579.856 1.126-.068.502-.498.865-.99.865z"/></g><g><path d="m12.001 61.004h-2.993c-.553 0-1-.447-1-1s.447-1 1-1h1.993v-22.998h-1.993c-.553 0-1-.447-1-1s.447-1 1-1h2.993c.553 0 1 .447 1 1v24.998c0 .553-.447 1-1 1z"/></g><g><path d="m38.999 44.004c-.486 0-.912-.354-.987-.85-.083-.546.292-1.056.838-1.139l19.317-2.939c.545-.083 1.057.292 1.139.838.083.546-.292 1.056-.838 1.139l-19.318 2.939c-.05.008-.101.012-.151.012z"/></g><g><path d="m35 48.004c-.553 0-1-.447-1-1s.447-1 1-1c1.654 0 3-1.346 3-3 0-1.464-1.044-2.706-2.483-2.954-.544-.094-.909-.611-.815-1.155s.614-.904 1.155-.815c2.401.412 4.143 2.483 4.143 4.924 0 2.757-2.243 5-5 5z"/></g><g><path d="m35.688 40.064c-.063 0-.128-.006-.192-.019l-15.688-3.061c-.542-.105-.896-.631-.79-1.173.105-.543.63-.9 1.173-.79l15.688 3.061c.542.105.896.631.79 1.173-.093.478-.512.809-.981.809z"/></g><g><path d="m20 37.004h-7.999c-.553 0-1-.447-1-1s.447-1 1-1h7.999c.553 0 1 .447 1 1s-.447 1-1 1z"/></g><g><path d="m34.58 47.982c-.026 0-.052-.001-.078-.003l-12.579-.979c-.551-.043-.963-.524-.92-1.074.043-.551.523-.971 1.074-.92l12.579.979c.551.043.963.524.92 1.074-.041.525-.478.923-.996.923z"/></g><g><path d="m58.315 41.063c-.477 0-.898-.341-.983-.826-.097-.544.267-1.063.811-1.158.278-.05.566-.074.857-.074.553 0 1 .447 1 1s-.447 1-1 1c-.174 0-.345.015-.51.043-.058.01-.117.015-.175.015z"/></g><g><path d="m35 48.004c-.175 0-.348-.01-.518-.026-.55-.055-.951-.544-.896-1.094.055-.551.557-.945 1.094-.896.105.011.212.017.32.017.553 0 1 .447 1 1s-.447.999-1 .999z"/></g></g><g><path d="m9.001 63.005h-8.001c-.553 0-1-.447-1-1s.447-1 1-1h7.001v-26.999h-7.001c-.553 0-1-.447-1-1s.447-1 1-1h8.001c.553 0 1 .447 1 1v28.999c0 .553-.447 1-1 1z"/></g></g><g><g><path d="m30 38.955c-.553 0-1-.447-1-1v-27.961c0-.553.447-1 1-1s1 .447 1 1v27.961c0 .553-.447 1-1 1z"/></g><g><path d="m44 43.24c-.553 0-1-.447-1-1v-32.246c0-.553.447-1 1-1s1 .447 1 1v32.246c0 .553-.447 1-1 1z"/></g><g><path d="m44 10.994h-14c-.553 0-1-.447-1-1s.447-1 1-1h14c.553 0 1 .447 1 1s-.447 1-1 1z"/></g><g><path d="m35 36.992c-.553 0-1-.447-1-1v-20.998c0-.553.447-1 1-1s1 .447 1 1v20.998c0 .553-.447 1-1 1z"/></g><g><path d="m39 36.992c-.553 0-1-.447-1-1v-20.998c0-.553.447-1 1-1s1 .447 1 1v20.998c0 .553-.447 1-1 1z"/></g><g><path d="m34 10.994c-.553 0-1-.447-1-1v-4c0-.553.447-1 1-1s1 .447 1 1v4c0 .553-.447 1-1 1z"/></g><g><path d="m40 6.994h-6c-.553 0-1-.447-1-1s.447-1 1-1h6c.553 0 1 .447 1 1s-.447 1-1 1z"/></g><g><path d="m40 10.994c-.553 0-1-.447-1-1v-4c0-.553.447-1 1-1s1 .447 1 1v4c0 .553-.447 1-1 1z"/></g><g><path d="m37 6.994c-.553 0-1-.447-1-1v-3.998c0-.553.447-1 1-1s1 .447 1 1v3.998c0 .553-.447 1-1 1z"/></g><g><path d="m43.996 43.24c-.553 0-1-.447-1-1v-21.246c0-.553.447-1 1-1s1 .447 1 1v21.246c0 .553-.447 1-1 1z"/></g><g><path d="m53.996 21.994h-10c-.553 0-1-.447-1-1s.447-1 1-1h10c.553 0 1 .447 1 1s-.447 1-1 1z"/></g><g><path d="m53.996 41.721c-.553 0-1-.447-1-1v-19.727c0-.553.447-1 1-1s1 .447 1 1v19.727c0 .552-.447 1-1 1z"/></g><g><path d="m50.996 25.994h-4c-.553 0-1-.447-1-1s.447-1 1-1h4c.553 0 1 .447 1 1s-.447 1-1 1z"/></g><g><path d="m50.996 29.994h-4c-.553 0-1-.447-1-1s.447-1 1-1h4c.553 0 1 .447 1 1s-.447 1-1 1z"/></g><g><path d="m50.996 33.994h-4c-.553 0-1-.447-1-1s.447-1 1-1h4c.553 0 1 .447 1 1s-.447 1-1 1z"/></g><g><path d="m50.996 37.994h-4c-.553 0-1-.447-1-1s.447-1 1-1h4c.553 0 1 .447 1 1s-.447 1-1 1z"/></g><g><path d="m30.004 21.994h-10c-.553 0-1-.447-1-1s.447-1 1-1h10c.553 0 1 .447 1 1s-.447 1-1 1z"/></g><g><path d="m20.003 37.004c-.553 0-1-.447-1-1v-15.01c0-.553.447-1 1-1s1 .447 1 1v15.01c0 .553-.447 1-1 1z"/></g><g><path d="m27.004 25.994h-4c-.553 0-1-.447-1-1s.447-1 1-1h4c.553 0 1 .447 1 1s-.447 1-1 1z"/></g><g><path d="m27.004 29.994h-4c-.553 0-1-.447-1-1s.447-1 1-1h4c.553 0 1 .447 1 1s-.447 1-1 1z"/></g><g><path d="m27.004 33.994h-4c-.553 0-1-.447-1-1s.447-1 1-1h4c.553 0 1 .447 1 1s-.447 1-1 1z"/></g></g></g></svg>